#!OML:ASF F:\VICON\USERDATA\INSTALL\Justin_Nancy\Justin_Nancy.ASF
:FULLY-SPECIFIED
:DEGREES
1
root -9.18736 16.8342 -32.4243 7.84385 2.11591 5.56494
lowerback 1.27167 -5.96678 -8.14583
upperback -3.95525 -8.11564 5.82045
thorax -2.88933 -3.77511 10.9437
lowerneck -10.397 1.27657 -14.2514
upperneck 17.1065 3.85678 2.13233
head 6.6759 1.12041 3.34078
rclavicle -3.8266e-014 3.97569e-014
rhumerus -48.9749 -15.3674 -61.9498
rradius 16.6007
rwrist 25.6389
rhand -13.6742 12.4525
rfingers 7.12502
rthumb 12.4433 -17.1571
lclavicle -3.8266e-014 3.97569e-014
lhumerus -28.9277 16.8298 80.7486
lradius 43.3107
lwrist -0.219846
lhand -17.7401 30.4141
lfingers 7.12502
lthumb 8.52112 60.2221
rfemur -43.5036 -0.241328 16.9721
rtibia 34.2683
rfoot 2.12639 -4.15743
rtoes 4.59864
lfemur 8.54081 -6.35864 -28.8408
ltibia 31.0849
lfoot 10.1195 -13.9103
ltoes -20.0848
2
root -9.21314 16.8643 -32.156 1.69693 3.17961 5.4808
lowerback 7.74022 -5.20329 -8.39956
upperback -1.98252 -7.54305 5.05069
thorax -4.66063 -3.43584 10.9301
lowerneck -11.2418 0.645291 -13.5817
upperneck 17.4968 3.01908 2.19403
head 7.0243 0.745389 3.21058
rclavicle 5.29761e-014 -2.38542e-014
rhumerus -49.1531 -17.2011 -61.8239
rradius 16.9254
rwrist 25.68
rhand -13.0865 13.7293
rfingers 7.12502
rthumb 13.0098 -15.845
lclavicle 5.29761e-014 -2.38542e-014
lhumerus -28.1237 15.6841 81.1385
lradius 43.0875
lwrist -0.136717
lhand -18.2421 28.9317
lfingers 7.12502
lthumb 8.03663 58.7589
rfemur -36.0093 -0.0783499 17.235
rtibia 35.2572
rfoot 1.13458 -4.82467
rtoes 6.45769
lfemur 14.3112 -6.11626 -28.7958
ltibia 32.2511
lfoot 15.0734 -15.0072
ltoes -18.0757
3
root -9.22845 16.8887 -31.8811 1.42072 2.11015 5.4774
lowerback 7.82493 -4.68561 -8.56506
upperback -1.74221 -6.8719 4.94974
thorax -4.60884 -3.10864 10.8673
lowerneck -11.3829 0.488999 -13.3986
upperneck 17.5435 2.78257 2.2658
head 7.0827 0.648157 3.18808
rclavicle 1.2424e-013 3.02153e-014
rhumerus -48.8919 -17.2572 -62.3102
rradius 17.306
rwrist 24.8896
rhand -13.2491 12.9303
rfingers 7.12502
rthumb 12.8531 -16.654
lclavicle 1.2424e-013 3.02153e-014
lhumerus -28.1898 15.5596 81.3266
lradius 42.9343
lwrist 0.382465
lhand -19.3172 28.1323
lfingers 7.12502
lthumb 6.99893 57.9965
rfemur -35.3056 0.774637 17.5604
rtibia 36.1191
rfoot 0.621616 -4.42524
rtoes 5.94483
lfemur 12.6758 -5.40403 -28.8662
ltibia 35.4649
lfoot 18.9339 -15.4741
ltoes -15.7954
4
root -9.24657 16.9202 -31.5847 1.51622 2.68046 5.08096
lowerback 7.80535 -5.01627 -8.51216
upperback -2.02306 -7.29736 5.32787
thorax -4.75157 -3.29911 11.3023
lowerneck -10.8183 0.657556 -13.7657
upperneck 17.5467 2.96863 2.37657
head 6.96418 0.72329 3.29085
rclavicle -6.34123e-014 1.90833e-014
rhumerus -48.6275 -15.8654 -62.9082
rradius 17.8515
rwrist 23.6074
rhand -14.2709 10.2423
rfingers 7.12502
rthumb 11.8679 -19.4013
lclavicle -6.34123e-014 1.90833e-014
lhumerus -29.3293 16.1628 81.5099
lradius 43.0389
lwrist 1.38761
lhand -19.7584 28.4261
lfingers 7.12502
lthumb 6.57306 58.3041
rfemur -34.4698 0.474328 18.187
rtibia 36.7244
rfoot -0.458348 -4.71518
rtoes 4.79767
lfemur 10.8452 -6.00767 -28.1642
ltibia 38.3924
lfoot 22.3412 -16.0188
ltoes -16.44
5
root -9.2693 16.9508 -31.309 1.17306 2.17569 4.38033
lowerback 8.05386 -4.87148 -8.16982
upperback -2.00253 -7.07142 5.58163
thorax -4.93377 -3.18154 11.4055
lowerneck -10.2075 0.711362 -13.9379
upperneck 17.4992 2.94843 2.49803
head 6.83889 0.715267 3.34679
rclavicle 4.29375e-014 2.54444e-014
rhumerus -48.3799 -14.9549 -63.6649
rradius 18.4083
rwrist 22.281
rhand -14.4414 11.3206
rfingers 7.12502
rthumb 11.7035 -18.3325
lclavicle 4.29375e-014 2.54444e-014
lhumerus -29.9149 16.302 81.6118
lradius 42.8933
lwrist 1.84028
lhand -19.0266 29.4553
lfingers 7.12502
lthumb 7.27948 59.3101
rfemur -33.2589 1.05863 19.142
rtibia 37.0665
rfoot -1.54534 -4.91603
rtoes 5.76191
lfemur 9.05104 -5.56159 -27.2405
ltibia 41.7683
lfoot 26.7242 -16.6013
ltoes -9.52939
6
root -9.2774 17.0098 -31.0257 0.934903 2.74713 3.40069
lowerback 7.88836 -4.65133 -6.64591
upperback -1.58209 -6.60912 5.38239
thorax -4.69156 -3.02819 10.2153
lowerneck -10.758 0.174514 -13.3563
upperneck 17.8233 2.16617 2.73803
head 7.10356 0.384674 3.283
rclavicle -4.82053e-014 -1.74931e-014
rhumerus -48.1987 -16.0344 -64.4338
rradius 19.0544
rwrist 21.1285
rhand -14.9516 11.4279
rfingers 7.12502
rthumb 11.2114 -18.2526
lclavicle -4.82053e-014 -1.74931e-014
lhumerus -28.7924 14.837 82.0238
lradius 41.9575
lwrist 1.95149
lhand -18.4697 28.7902
lfingers 7.12502
lthumb 7.81704 58.6257
rfemur -31.7895 0.854136 20.2969
rtibia 37.1414
rfoot -2.68199 -5.56576
rtoes 6.11035
lfemur 7.10824 -6.07807 -25.9792
ltibia 45.0855
lfoot 27.397 -16.215
ltoes -11.4809
7
root -9.29212 17.0482 -30.7632 1.02571 1.23658 2.7739
lowerback 7.42677 -3.4132 -5.54533
upperback -0.93312 -4.84271 4.84545
thorax -4.26065 -2.22195 8.76502
lowerneck -12.3644 -0.722201 -12.3144
upperneck 18.5169 0.910514 3.1528
head 7.71274 -0.130182 3.16635
rclavicle 7.71285e-014 -3.02153e-014
rhumerus -47.7763 -18.5653 -65.0297
rradius 19.4561
rwrist 20.3325
rhand -15.3487 10.9599
rfingers 7.12502
rthumb 10.8284 -18.741
lclavicle 7.71285e-014 -3.02153e-014
lhumerus -27.1289 12.1064 82.6364
lradius 41.148
lwrist 2.28178
lhand -18.1266 28.6538
lfingers 7.12502
lthumb 8.14816 58.4767
rfemur -30.9662 1.84575 21.2287
rtibia 37.0291
rfoot -3.35857 -5.29426
rtoes 6.88888
lfemur 4.81649 -4.70088 -25.216
ltibia 48.2676
lfoot 27.4426 -15.5132
ltoes -8.3898
8
root -9.30154 17.0828 -30.5015 1.04974 -0.171071 2.16503
lowerback 8.0323 -4.19885 -6.74246
upperback -2.04812 -5.969 6.49496
thorax -5.28641 -2.63895 11.5244
lowerneck -9.53371 0.947995 -14.5595
upperneck 18.0334 3.19703 2.94416
head 6.85574 0.806302 3.61348
rclavicle -1.6201e-014 2.38542e-014
rhumerus -46.8349 -11.8875 -65.9839
rradius 19.5662
rwrist 18.5933
rhand -15.6414 11.6439
rfingers 7.12502
rthumb 10.5461 -18.0715
lclavicle -1.6201e-014 2.38542e-014
lhumerus -31.1536 16.6907 82.3395
lradius 41.7588
lwrist 2.21741
lhand -17.7434 29.3777
lfingers 7.12502
lthumb 8.51795 59.1859
rfemur -29.9041 2.60271 22.1204
rtibia 36.7724
rfoot -4.11554 -4.81094
rtoes 7.58974
lfemur 2.73219 -3.22002 -24.4391
ltibia 51.2894
lfoot 24.7803 -14.9109
ltoes -8.65282
9
root -9.29037 17.1269 -30.2277 0.758298 0.18147 1.58766
lowerback 8.25624 -3.98026 -5.52409
upperback -1.89481 -5.56373 6.17775
thorax -5.48732 -2.47207 10.433
lowerneck -9.37063 0.57666 -13.8974
upperneck 17.9177 2.52205 3.10398
head 6.8481 0.545281 3.50405
rclavicle -3.23025e-014 4.6118e-014
rhumerus -46.6796 -13.3183 -66.0167
rradius 19.5075
rwrist 18.8406
rhand -16.1769 13.4585
rfingers 7.12502
rthumb 10.0295 -16.2825
lclavicle -3.23025e-014 4.6118e-014
lhumerus -30.8595 15.2526 82.6057
lradius 41.0662
lwrist 2.43566
lhand -17.1264 29.7257
lfingers 7.12502
lthumb 9.11333 59.5088
rfemur -28.2638 2.09582 22.8123
rtibia 36.5126
rfoot -5.21351 -4.88902
rtoes 8.37677
lfemur 1.01781 -3.28959 -23.7017
ltibia 54.1772
lfoot 22.0845 -14.8515
ltoes -4.22197
10
root -9.29005 17.1659 -29.9509 0.577831 0.669685 0.902951
lowerback 8.10495 -3.83035 -4.22721
upperback -1.62325 -5.2358 5.86205
thorax -5.32127 -2.37113 9.26162
lowerneck -9.54106 0.0932798 -13.2148
upperneck 17.9627 1.75772 3.20446
head 6.95821 0.230539 3.37009
rclavicle 3.68249e-014 -5.24792e-014
rhumerus -46.2016 -14.4129 -66.7087
rradius 19.7447
rwrist 18.4245
rhand -16.4643 12.8647
rfingers 7.12502
rthumb 9.75226 -16.8895
lclavicle 3.68249e-014 -5.24792e-014
lhumerus -30.3105 13.8687 82.8106
lradius 40.0453
lwrist 1.94659
lhand -16.8529 28.6486
lfingers 7.12502
lthumb 9.37723 58.42
rfemur -26.7207 1.73705 23.6505
rtibia 36.1733
rfoot -6.26186 -5.34577
rtoes 8.40374
lfemur -0.81881 -3.39837 -22.7503
ltibia 56.771
lfoot 18.21 -13.9997
ltoes -4.4035
11
root -9.27958 17.1752 -29.726 0.990279 -2.66924 0.438456
lowerback 7.98422 -2.83559 -4.0979
upperback -1.75345 -3.87028 6.11802
thorax -5.63707 -1.67178 9.33315
lowerneck -9.10275 0.280065 -13.432
upperneck 17.9559 1.99157 3.14456
head 6.85992 0.322106 3.39903
rclavicle -4.15957e-014 4.77083e-015
rhumerus -45.4859 -12.504 -68.0268
rradius 20.464
rwrist 16.7596
rhand -16.471 10.3213
rfingers 7.12502
rthumb 9.74573 -19.4332
lclavicle -4.15957e-014 4.77083e-015
lhumerus -31.1317 14.288 82.9991
lradius 39.4111
lwrist 0.660139
lhand -17.0799 27.377
lfingers 7.12502
lthumb 9.15829 57.1581
rfemur -26.4042 3.59291 24.3106
rtibia 35.8095
rfoot -6.69524 -4.13106
rtoes 8.60799
lfemur -3.37047 -0.216383 -22.4443
ltibia 59.1537
lfoot 15.3486 -12.7157
ltoes -4.89425
12
root -9.29996 17.2226 -29.443 0.746041 -1.81441 0.118612
lowerback 8.15687 -3.48693 -4.41769
upperback -1.92682 -4.75262 6.66331
thorax -5.68511 -2.08598 10.2444
lowerneck -8.64699 0.760231 -13.9447
upperneck 18.0204 2.68827 2.96792
head 6.74328 0.603804 3.47159
rclavicle -3.84648e-014 -1.59028e-014
rhumerus -44.6184 -9.77506 -69.121
rradius 21.1559
rwrist 15.1585
rhand -16.1387 9.75788
rfingers 7.12502
rthumb 10.0664 -19.9814
lclavicle -3.84648e-014 -1.59028e-014
lhumerus -32.5884 15.6598 83.0608
lradius 39.2263
lwrist -0.649881
lhand -17.4033 26.9175
lfingers 7.12502
lthumb 8.84618 56.7121
rfemur -24.6596 3.18745 24.7517
rtibia 35.3949
rfoot -7.90832 -4.78082
rtoes 9.74437
lfemur -5.10554 -0.711267 -21.7889
ltibia 61.0366
lfoot 12.7966 -12.1675
ltoes -7.0077
13
root -9.31257 17.2629 -29.1716 0.641495 -1.56401 -0.104981
lowerback 8.07205 -3.50787 -4.28964
upperback -1.7319 -4.76925 6.68756
thorax -5.4331 -2.11776 10.1744
lowerneck -9.02288 0.602961 -13.8805
upperneck 18.2104 2.52313 2.99996
head 6.88513 0.523092 3.4688
rclavicle -6.46547e-014 2.22639e-014
rhumerus -43.5605 -9.25979 -70.0388
rradius 21.7814
rwrist 13.9854
rhand -15.9418 9.67806
rfingers 7.12502
rthumb 10.2563 -20.0519
lclavicle -6.46547e-014 2.22639e-014
lhumerus -32.7724 15.6028 83.2685
lradius 38.7755
lwrist -1.89033
lhand -16.8098 25.7872
lfingers 7.12502
lthumb 9.41884 55.5568
rfemur -23.1996 3.04998 25.0636
rtibia 34.9885
rfoot -8.95972 -5.04726
rtoes 10.7949
lfemur -6.97629 -0.76605 -21.3941
ltibia 62.6102
lfoot 9.7583 -10.9154
ltoes -11.4616
14
root -9.31823 17.2896 -28.9094 0.784832 -1.82437 -0.366399
lowerback 7.70126 -3.21004 -3.81587
upperback -1.49326 -4.33196 6.46169
thorax -5.10702 -1.94016 9.55147
lowerneck -9.6062 0.267161 -13.4148
upperneck 18.442 2.07307 3.06546
head 7.10216 0.335211 3.39236
rclavicle 2.52953e-014 3.97569e-014
rhumerus -42.5735 -9.79207 -70.8469
rradius 22.3078
rwrist 13.5491
rhand -16.3922 8.94786
rfingers 7.12502
rthumb 9.82176 -20.8031
lclavicle 2.52953e-014 3.97569e-014
lhumerus -32.6261 14.6859 83.5256
lradius 38.1386
lwrist -2.70951
lhand -16.8812 25.131
lfingers 7.12502
lthumb 9.34995 54.9036
rfemur -22.0645 3.06244 25.4247
rtibia 34.5486
rfoot -9.6696 -5.02941
rtoes 9.93017
lfemur -9.05162 -0.357317 -21.061
ltibia 63.8514
lfoot 8.02972 -9.86115
ltoes -10.9453
